<svg xmlns="http://www.w3.org/2000/svg" xmlns:xlink="http://www.w3.org/1999/xlink" width="64" zoomAndPan="magnify" viewBox="0 0 48 48" height="64" preserveAspectRatio="xMidYMid meet" version="1.0"><defs><clipPath id="c5160c8296"><path d="M 5.191406 6 L 42.660156 6 L 42.660156 41.214844 L 5.191406 41.214844 Z M 5.191406 6 " clip-rule="nonzero"/></clipPath></defs><g clip-path="url(#c5160c8296)"><path fill="#ffffff" d="M 41.054688 39.128906 L 40.136719 39.65625 C 39.960938 39.757812 39.730469 39.703125 39.613281 39.535156 C 34.808594 32.496094 32.207031 27.5 29.304688 21.703125 C 29.191406 21.480469 29.042969 21.277344 28.867188 21.105469 C 28.90625 21.089844 28.941406 21.074219 28.980469 21.058594 C 28.992188 21.054688 29.007812 21.050781 29.019531 21.042969 C 29.253906 20.953125 29.480469 20.863281 29.695312 20.773438 C 29.703125 20.773438 29.707031 20.769531 29.714844 20.769531 C 29.78125 20.742188 29.84375 20.714844 29.910156 20.691406 C 29.917969 20.6875 29.925781 20.683594 29.933594 20.679688 C 30.144531 20.597656 30.347656 20.515625 30.542969 20.4375 C 30.546875 20.433594 30.554688 20.433594 30.558594 20.429688 C 31.742188 19.957031 32.535156 19.636719 32.621094 19.601562 L 32.984375 19.464844 C 33.050781 19.4375 33.117188 19.410156 33.183594 19.382812 C 33.203125 19.375 33.222656 19.367188 33.238281 19.359375 C 33.296875 19.335938 33.359375 19.308594 33.417969 19.28125 C 33.425781 19.277344 33.433594 19.273438 33.445312 19.269531 C 33.5 19.242188 33.554688 19.214844 33.609375 19.1875 C 33.59375 19.898438 33.804688 20.613281 34.253906 21.214844 C 36.257812 23.917969 37.492188 27.675781 38.921875 32.023438 C 39.625 34.152344 40.347656 36.351562 41.230469 38.648438 C 41.300781 38.828125 41.222656 39.035156 41.054688 39.128906 Z M 20.960938 22.699219 L 20.5625 22.84375 L 19.480469 20.945312 L 17.277344 17.09375 L 26.980469 9.320312 L 27.289062 9.070312 C 27.324219 9.046875 27.355469 9.019531 27.390625 8.992188 L 32.625 18.152344 C 32.585938 18.167969 32.542969 18.1875 32.503906 18.199219 L 32.132812 18.34375 C 32.128906 18.34375 32.125 18.34375 32.121094 18.347656 C 32.117188 18.347656 32.113281 18.351562 32.105469 18.355469 C 32.09375 18.359375 32.082031 18.363281 32.066406 18.367188 C 32.054688 18.375 32.035156 18.382812 32.015625 18.390625 C 31.996094 18.398438 31.96875 18.410156 31.941406 18.417969 C 31.890625 18.441406 31.828125 18.464844 31.757812 18.496094 C 31.691406 18.519531 31.613281 18.550781 31.53125 18.585938 C 31.453125 18.617188 31.367188 18.652344 31.277344 18.6875 C 31.207031 18.714844 31.136719 18.746094 31.0625 18.773438 C 31.035156 18.785156 31.007812 18.796875 30.984375 18.804688 C 30.796875 18.878906 30.59375 18.960938 30.371094 19.050781 C 30.292969 19.082031 30.210938 19.117188 30.125 19.148438 C 30.125 19.152344 30.121094 19.152344 30.121094 19.152344 C 29.800781 19.28125 29.449219 19.417969 29.078125 19.566406 C 28.945312 19.621094 28.8125 19.671875 28.675781 19.726562 C 28.066406 19.96875 27.410156 20.230469 26.722656 20.496094 C 24.457031 21.386719 22.519531 22.128906 20.960938 22.699219 Z M 15.933594 25.507812 L 11.679688 29.957031 C 11.675781 29.957031 11.675781 29.957031 11.671875 29.957031 L 6.601562 21.078125 C 6.601562 21.078125 6.601562 21.074219 6.605469 21.074219 L 12.777344 19.601562 C 14.019531 19.304688 15.203125 18.730469 16.210938 17.945312 L 18.261719 21.539062 L 19.273438 23.308594 C 18.011719 23.78125 16.859375 24.539062 15.933594 25.507812 Z M 37.1875 9.253906 C 37.210938 9.289062 37.230469 9.324219 37.253906 9.363281 L 37.261719 9.375 C 37.265625 9.386719 37.269531 9.398438 37.277344 9.40625 C 37.28125 9.414062 37.285156 9.421875 37.289062 9.429688 L 37.300781 9.449219 C 37.308594 9.457031 37.3125 9.464844 37.316406 9.472656 C 37.335938 9.507812 37.355469 9.542969 37.375 9.578125 C 38.007812 10.738281 37.703125 12.121094 37.339844 13.074219 C 36.847656 14.359375 35.921875 15.683594 34.804688 16.707031 L 34.800781 16.710938 C 34.796875 16.714844 34.792969 16.722656 34.789062 16.726562 C 34.734375 16.769531 34.6875 16.8125 34.636719 16.859375 C 34.636719 16.859375 34.632812 16.863281 34.632812 16.863281 C 34.5625 16.925781 34.492188 16.984375 34.421875 17.042969 C 34.40625 17.054688 34.394531 17.0625 34.382812 17.074219 C 34.324219 17.121094 34.265625 17.167969 34.207031 17.214844 C 34.183594 17.234375 34.15625 17.25 34.132812 17.269531 C 34.085938 17.304688 34.039062 17.339844 33.996094 17.375 C 33.964844 17.394531 33.9375 17.414062 33.90625 17.433594 C 33.875 17.457031 33.839844 17.480469 33.808594 17.503906 L 28.550781 8.300781 C 31.472656 6.921875 35.859375 7.035156 37.1875 9.253906 Z M 42.488281 38.164062 C 41.617188 35.898438 40.902344 33.714844 40.207031 31.601562 C 38.738281 27.140625 37.472656 23.289062 35.335938 20.410156 C 34.757812 19.632812 34.851562 18.535156 35.550781 17.855469 C 35.59375 17.816406 35.640625 17.773438 35.6875 17.734375 C 35.710938 17.714844 35.734375 17.691406 35.753906 17.667969 C 38.257812 15.351562 40.019531 11.617188 38.5625 8.933594 C 38.535156 8.890625 38.511719 8.84375 38.488281 8.800781 C 38.484375 8.800781 38.484375 8.796875 38.484375 8.796875 C 38.472656 8.78125 38.464844 8.761719 38.457031 8.746094 L 38.453125 8.742188 C 38.445312 8.726562 38.433594 8.710938 38.425781 8.695312 C 38.402344 8.648438 38.375 8.605469 38.347656 8.5625 C 37.445312 7.058594 35.628906 6.167969 33.230469 6.058594 C 31.144531 5.964844 28.917969 6.484375 27.277344 7.449219 C 27.277344 7.449219 27.277344 7.449219 27.273438 7.449219 C 26.976562 7.625 26.695312 7.816406 26.445312 8.019531 L 15.984375 16.398438 L 15.453125 16.824219 C 14.582031 17.519531 13.546875 18.027344 12.460938 18.285156 L 6.289062 19.761719 C 5.871094 19.863281 5.535156 20.144531 5.363281 20.539062 C 5.191406 20.933594 5.214844 21.375 5.429688 21.75 L 10.5 30.625 C 10.714844 31 11.082031 31.246094 11.511719 31.296875 C 11.566406 31.304688 11.625 31.308594 11.679688 31.308594 C 12.046875 31.308594 12.394531 31.160156 12.65625 30.890625 L 16.910156 26.441406 C 17.734375 25.582031 18.765625 24.917969 19.890625 24.519531 C 20.085938 24.453125 20.285156 24.382812 20.488281 24.308594 L 21.425781 23.96875 C 22.976562 23.398438 24.898438 22.664062 27.140625 21.785156 C 27.480469 21.753906 27.902344 21.917969 28.097656 22.308594 C 31.023438 28.152344 33.648438 33.1875 38.5 40.296875 C 38.832031 40.785156 39.386719 41.054688 39.945312 41.054688 C 40.242188 41.054688 40.539062 40.980469 40.808594 40.828125 L 41.726562 40.304688 C 42.480469 39.871094 42.800781 38.972656 42.488281 38.164062 " fill-opacity="1" fill-rule="nonzero"/></g></svg>