<svg xmlns="http://www.w3.org/2000/svg" xmlns:xlink="http://www.w3.org/1999/xlink" width="64" zoomAndPan="magnify" viewBox="0 0 48 48" height="64" preserveAspectRatio="xMidYMid meet" version="1.0"><defs><clipPath id="1ecc696807"><path d="M 5.6875 12 L 42.421875 12 L 42.421875 41.5625 L 5.6875 41.5625 Z M 5.6875 12 " clip-rule="nonzero"/></clipPath><clipPath id="81ac2b82df"><path d="M 9 5.5625 L 36 5.5625 L 36 20 L 9 20 Z M 9 5.5625 " clip-rule="nonzero"/></clipPath></defs><g clip-path="url(#1ecc696807)"><path fill="#ffffff" d="M 15.4375 13.140625 C 12.980469 13.425781 10.898438 14.226562 9.546875 15.140625 C 8.542969 15.824219 7.933594 16.59375 7.769531 17.273438 C 7.578125 18.074219 7.742188 18.859375 7.875 19.664062 C 7.980469 20.304688 8.0625 20.960938 7.746094 21.671875 C 7.625 21.945312 7.363281 22.097656 7.125 22.292969 C 6.738281 22.605469 6.375 22.964844 6.207031 23.558594 C 5.691406 25.375 5.878906 30.777344 6.078125 35.421875 C 6.105469 36.035156 6.378906 36.609375 6.878906 37.132812 C 7.519531 37.804688 8.558594 38.398438 9.847656 38.902344 C 14.59375 40.757812 22.835938 41.445312 25.703125 41.214844 C 28.988281 40.953125 35.34375 40.027344 38.980469 37.96875 C 40.695312 37 41.8125 35.757812 41.921875 34.28125 C 42.140625 31.359375 42.308594 27.21875 42.0625 24.488281 C 41.949219 23.214844 41.726562 22.230469 41.414062 21.746094 C 41 21.097656 40.375 20.765625 39.851562 20.484375 C 39.699219 20.402344 39.558594 20.324219 39.445312 20.238281 C 39.386719 20.195312 39.332031 20.152344 39.335938 20.078125 C 39.355469 19.46875 39.496094 18.671875 39.484375 17.886719 C 39.476562 17.285156 39.378906 16.695312 39.113281 16.179688 C 38.789062 15.554688 38.042969 14.851562 36.953125 14.25 C 35.433594 13.414062 33.234375 12.738281 30.710938 12.667969 C 30.414062 12.660156 30.164062 12.894531 30.15625 13.191406 C 30.148438 13.488281 30.382812 13.738281 30.679688 13.746094 C 33.003906 13.8125 35.03125 14.421875 36.429688 15.195312 C 37.285156 15.667969 37.902344 16.183594 38.15625 16.675781 C 38.398438 17.144531 38.425781 17.710938 38.402344 18.257812 C 38.375 18.90625 38.273438 19.539062 38.253906 20.039062 C 38.234375 20.601562 38.542969 20.96875 39.058594 21.277344 C 39.488281 21.53125 40.125 21.738281 40.507812 22.328125 C 40.761719 22.726562 40.894531 23.542969 40.988281 24.585938 C 41.226562 27.261719 41.058594 31.328125 40.847656 34.203125 C 40.789062 34.945312 40.363281 35.585938 39.710938 36.15625 C 38.980469 36.796875 37.980469 37.335938 36.832031 37.800781 C 33.265625 39.246094 28.34375 39.921875 25.617188 40.136719 C 22.835938 40.359375 14.84375 39.695312 10.238281 37.898438 C 9.300781 37.53125 8.507812 37.117188 7.945312 36.648438 C 7.480469 36.261719 7.175781 35.847656 7.15625 35.371094 C 6.964844 30.863281 6.746094 25.613281 7.242188 23.851562 C 7.367188 23.414062 7.703125 23.207031 7.988281 22.980469 C 8.296875 22.730469 8.574219 22.46875 8.734375 22.105469 C 9.144531 21.179688 9.078125 20.324219 8.941406 19.488281 C 8.832031 18.824219 8.660156 18.179688 8.816406 17.519531 C 8.933594 17.03125 9.429688 16.523438 10.152344 16.03125 C 11.394531 15.191406 13.308594 14.472656 15.5625 14.210938 C 15.859375 14.175781 16.070312 13.90625 16.035156 13.613281 C 16.003906 13.320312 15.734375 13.105469 15.4375 13.140625 Z M 15.4375 13.140625 " fill-opacity="1" fill-rule="evenodd"/></g><path fill="#ffffff" d="M 7.738281 17.566406 C 7.6875 18.773438 8.667969 19.828125 10.394531 20.589844 C 13.878906 22.132812 20.457031 22.6875 25 22.410156 C 28.402344 22.199219 33.992188 21.570312 37.011719 19.964844 C 38.496094 19.175781 39.378906 18.128906 39.347656 16.867188 C 39.339844 16.570312 39.09375 16.335938 38.796875 16.339844 C 38.5 16.347656 38.265625 16.597656 38.269531 16.894531 C 38.285156 17.457031 37.988281 17.929688 37.507812 18.347656 C 36.9375 18.84375 36.117188 19.253906 35.164062 19.601562 C 32.132812 20.707031 27.753906 21.160156 24.933594 21.332031 C 20.550781 21.601562 14.199219 21.09375 10.832031 19.605469 C 10.171875 19.3125 9.632812 18.984375 9.265625 18.609375 C 8.972656 18.308594 8.800781 17.984375 8.816406 17.617188 C 8.832031 17.320312 8.597656 17.066406 8.300781 17.054688 C 8.003906 17.039062 7.753906 17.269531 7.738281 17.566406 Z M 7.738281 17.566406 " fill-opacity="1" fill-rule="evenodd"/><path fill="#ffffff" d="M 6.476562 23.949219 C 7.304688 24.949219 8.914062 25.769531 10.910156 26.382812 C 15.339844 27.746094 21.6875 28.164062 24.851562 27.921875 C 29.3125 27.574219 33.371094 27.039062 36.445312 25.929688 C 38.582031 25.160156 40.25 24.109375 41.289062 22.6875 C 41.464844 22.445312 41.410156 22.109375 41.171875 21.933594 C 40.929688 21.757812 40.59375 21.808594 40.417969 22.050781 C 39.492188 23.320312 37.984375 24.230469 36.078125 24.914062 C 33.082031 25.996094 29.121094 26.507812 24.769531 26.84375 C 21.695312 27.082031 15.527344 26.675781 11.226562 25.351562 C 9.472656 24.8125 8.035156 24.136719 7.304688 23.261719 C 7.113281 23.03125 6.773438 23 6.546875 23.191406 C 6.316406 23.382812 6.285156 23.722656 6.476562 23.949219 Z M 6.476562 23.949219 " fill-opacity="1" fill-rule="evenodd"/><path fill="#ffffff" d="M 20.519531 24.777344 C 25.59375 25.21875 33.824219 24.386719 37.957031 21.6875 C 38.207031 21.523438 38.277344 21.1875 38.113281 20.9375 C 37.953125 20.691406 37.617188 20.621094 37.367188 20.78125 C 33.398438 23.375 25.488281 24.125 20.613281 23.703125 C 20.316406 23.675781 20.054688 23.894531 20.027344 24.191406 C 20 24.488281 20.222656 24.75 20.519531 24.777344 Z M 20.519531 24.777344 " fill-opacity="1" fill-rule="evenodd"/><path fill="#ffffff" d="M 8.121094 21.8125 C 8.722656 22.34375 9.847656 22.851562 11.113281 23.257812 C 12.9375 23.84375 15.058594 24.230469 16.214844 24.269531 C 16.511719 24.277344 16.761719 24.046875 16.769531 23.746094 C 16.78125 23.449219 16.546875 23.199219 16.25 23.191406 C 15.15625 23.15625 13.160156 22.78125 11.441406 22.230469 C 10.34375 21.878906 9.355469 21.464844 8.832031 21.003906 C 8.609375 20.804688 8.265625 20.828125 8.070312 21.050781 C 7.875 21.277344 7.894531 21.617188 8.121094 21.8125 Z M 8.121094 21.8125 " fill-opacity="1" fill-rule="evenodd"/><g clip-path="url(#81ac2b82df)"><path fill="#ffffff" d="M 23.078125 6.699219 C 22.988281 7.164062 22.917969 7.859375 23.195312 8.789062 C 23.757812 10.667969 25.46875 11.800781 26.59375 12.328125 C 27.996094 12.984375 29.480469 13.34375 30.78125 13.871094 C 32.550781 14.585938 33.953125 15.652344 34.183594 18.5 C 34.207031 18.796875 34.46875 19.019531 34.765625 18.996094 C 35.0625 18.972656 35.28125 18.710938 35.257812 18.414062 C 34.984375 15.003906 33.304688 13.726562 31.1875 12.871094 C 29.898438 12.351562 28.433594 12 27.050781 11.351562 C 26.128906 10.917969 24.691406 10.023438 24.230469 8.480469 C 23.941406 7.523438 24.140625 6.871094 24.210938 6.535156 C 24.246094 6.355469 24.253906 6.21875 24.238281 6.125 C 24.214844 5.96875 24.148438 5.851562 24.0625 5.761719 C 23.957031 5.65625 23.796875 5.558594 23.539062 5.574219 C 21.867188 5.664062 20.109375 6.234375 18.3125 8.28125 C 16.773438 10.03125 16.511719 11.503906 15.269531 13.144531 C 14.421875 14.269531 13.035156 14.8125 11.851562 15.527344 C 10.464844 16.367188 9.332031 17.402344 9.242188 19.429688 C 9.230469 19.726562 9.460938 19.980469 9.757812 19.992188 C 10.054688 20.003906 10.308594 19.773438 10.320312 19.476562 C 10.390625 17.886719 11.324219 17.109375 12.410156 16.449219 C 13.707031 15.667969 15.199219 15.027344 16.128906 13.796875 C 17.355469 12.175781 17.601562 10.71875 19.121094 8.992188 C 20.476562 7.449219 21.800781 6.867188 23.078125 6.699219 Z M 23.078125 6.699219 " fill-opacity="1" fill-rule="evenodd"/></g><path fill="#ffffff" d="M 20.152344 11.851562 C 19.886719 13.808594 21.386719 14.644531 23.511719 15.078125 C 25.101562 15.402344 27.042969 15.53125 28.507812 16.050781 C 29.328125 16.34375 29.996094 16.75 30.253906 17.476562 C 30.355469 17.757812 30.664062 17.902344 30.945312 17.804688 C 31.222656 17.703125 31.371094 17.394531 31.273438 17.113281 C 30.964844 16.25 30.289062 15.652344 29.386719 15.242188 C 28.207031 14.707031 26.617188 14.488281 25.109375 14.257812 C 23.957031 14.082031 22.859375 13.902344 22.085938 13.511719 C 21.484375 13.207031 21.117188 12.757812 21.222656 11.996094 C 21.261719 11.703125 21.054688 11.429688 20.757812 11.390625 C 20.464844 11.351562 20.191406 11.558594 20.152344 11.851562 Z M 20.152344 11.851562 " fill-opacity="1" fill-rule="evenodd"/><path fill="#ffffff" d="M 14.042969 19.511719 C 14.441406 18.730469 15.125 18.316406 15.9375 18.09375 C 16.851562 17.839844 17.917969 17.824219 18.980469 17.859375 C 20.34375 17.90625 21.695312 18.042969 22.742188 17.960938 C 23.585938 17.898438 24.25 17.679688 24.660156 17.273438 C 24.871094 17.0625 24.871094 16.722656 24.660156 16.511719 C 24.449219 16.300781 24.109375 16.300781 23.898438 16.511719 C 23.636719 16.769531 23.195312 16.847656 22.664062 16.886719 C 21.648438 16.960938 20.335938 16.824219 19.019531 16.78125 C 17.84375 16.742188 16.664062 16.773438 15.652344 17.054688 C 14.539062 17.359375 13.625 17.953125 13.082031 19.019531 C 12.949219 19.285156 13.054688 19.609375 13.320312 19.746094 C 13.582031 19.882812 13.910156 19.777344 14.042969 19.511719 Z M 14.042969 19.511719 " fill-opacity="1" fill-rule="evenodd"/></svg>