<svg xmlns="http://www.w3.org/2000/svg" xmlns:xlink="http://www.w3.org/1999/xlink" width="64" zoomAndPan="magnify" viewBox="0 0 48 48" height="64" preserveAspectRatio="xMidYMid meet" version="1.0"><defs><clipPath id="ef13594856"><path d="M 5.707031 5.214844 L 42.441406 5.214844 L 42.441406 41.949219 L 5.707031 41.949219 Z M 5.707031 5.214844 " clip-rule="nonzero"/></clipPath></defs><g clip-path="url(#ef13594856)"><path fill="#fdfeff" d="M 41.988281 28.242188 C 41.785156 27.960938 41.460938 27.839844 41.136719 27.921875 C 35.511719 29.214844 29.683594 26.988281 26.324219 22.335938 C 22.96875 17.640625 22.683594 11.449219 25.679688 6.511719 C 25.839844 6.226562 25.839844 5.863281 25.636719 5.621094 C 25.4375 5.378906 25.113281 5.214844 24.789062 5.296875 C 22.683594 5.78125 20.742188 6.632812 19 7.929688 C 12.648438 12.5 10.664062 20.878906 13.902344 27.71875 C 13.859375 27.757812 13.859375 27.800781 13.820312 27.839844 C 13.335938 27.597656 12.769531 27.476562 12.242188 27.476562 C 12.203125 27.476562 12.160156 27.476562 12.121094 27.476562 C 12.082031 27.476562 12.039062 27.476562 12 27.476562 C 10.136719 27.476562 8.601562 28.851562 8.316406 30.632812 C 6.859375 31.15625 5.808594 32.535156 5.808594 34.152344 C 5.808594 35.648438 6.699219 36.984375 7.992188 37.550781 C 8.601562 39.375 10.300781 40.585938 12.242188 40.585938 C 12.769531 40.585938 13.292969 40.507812 13.78125 40.304688 C 14.628906 41.277344 15.84375 41.800781 17.140625 41.800781 C 18.433594 41.800781 19.6875 41.195312 20.539062 40.222656 C 21.105469 40.464844 21.671875 40.585938 22.277344 40.585938 C 24.261719 40.585938 26.003906 39.292969 26.570312 37.429688 C 26.851562 37.269531 27.136719 37.066406 27.335938 36.824219 C 27.703125 36.824219 28.027344 36.863281 28.390625 36.863281 C 31.707031 36.863281 34.945312 35.8125 37.699219 33.828125 C 39.4375 32.574219 40.894531 30.996094 42.027344 29.175781 C 42.191406 28.851562 42.191406 28.488281 41.988281 28.242188 Z M 25.558594 36.054688 C 25.3125 36.175781 25.152344 36.378906 25.070312 36.621094 C 24.789062 37.957031 23.613281 38.886719 22.277344 38.886719 C 21.710938 38.886719 21.1875 38.726562 20.742188 38.441406 C 20.539062 38.320312 20.335938 38.28125 20.132812 38.320312 C 19.929688 38.363281 19.730469 38.523438 19.609375 38.683594 C 19.082031 39.574219 18.152344 40.101562 17.140625 40.101562 C 16.167969 40.101562 15.238281 39.617188 14.710938 38.765625 C 14.550781 38.523438 14.304688 38.402344 14.023438 38.402344 C 13.902344 38.402344 13.738281 38.441406 13.617188 38.484375 C 13.171875 38.726562 12.6875 38.847656 12.203125 38.847656 C 10.867188 38.847656 9.734375 37.957031 9.410156 36.660156 C 9.328125 36.378906 9.125 36.175781 8.882812 36.09375 C 7.992188 35.8125 7.386719 35.003906 7.386719 34.070312 C 7.386719 33.019531 8.113281 32.128906 9.167969 31.96875 C 9.570312 31.886719 9.855469 31.5625 9.855469 31.15625 L 9.855469 31.117188 C 9.855469 29.945312 10.824219 28.972656 12 28.972656 L 12.082031 28.972656 C 12.082031 28.972656 12.121094 28.972656 12.121094 28.972656 L 12.203125 28.972656 C 12.6875 28.972656 13.171875 29.132812 13.578125 29.457031 C 13.78125 29.621094 14.0625 29.699219 14.304688 29.621094 C 14.550781 29.539062 14.75 29.378906 14.871094 29.132812 C 15.195312 28.285156 15.964844 27.757812 16.894531 27.757812 L 17.097656 27.757812 C 18.03125 27.757812 18.878906 28.367188 19.121094 29.257812 C 19.203125 29.539062 19.445312 29.742188 19.6875 29.824219 C 19.929688 29.902344 20.253906 29.824219 20.457031 29.621094 C 20.863281 29.214844 21.429688 28.972656 21.996094 29.011719 L 22.078125 29.011719 C 22.078125 29.011719 22.117188 29.011719 22.117188 29.011719 L 22.199219 29.011719 C 23.371094 29.011719 24.300781 29.984375 24.34375 31.117188 C 24.34375 31.15625 24.34375 31.199219 24.34375 31.199219 C 24.34375 31.601562 24.625 31.925781 25.03125 32.007812 C 26.042969 32.167969 26.8125 33.058594 26.8125 34.113281 C 26.851562 34.960938 26.367188 35.730469 25.558594 36.054688 Z M 36.765625 32.492188 C 34.257812 34.273438 31.34375 35.203125 28.308594 35.203125 C 28.429688 34.839844 28.472656 34.476562 28.472656 34.113281 C 28.472656 32.492188 27.460938 31.117188 25.960938 30.589844 C 25.679688 28.8125 24.140625 27.433594 22.277344 27.433594 C 22.238281 27.433594 22.199219 27.433594 22.15625 27.433594 C 22.117188 27.433594 22.078125 27.433594 22.035156 27.433594 C 21.386719 27.433594 20.78125 27.597656 20.253906 27.878906 C 19.566406 26.867188 18.394531 26.21875 17.140625 26.21875 C 17.097656 26.21875 17.058594 26.21875 17.019531 26.21875 C 16.976562 26.21875 16.9375 26.21875 16.894531 26.21875 C 16.289062 26.21875 15.722656 26.382812 15.195312 26.625 C 12.527344 20.554688 14.386719 13.230469 19.929688 9.222656 C 20.984375 8.453125 22.15625 7.847656 23.371094 7.402344 C 21.066406 12.582031 21.632812 18.613281 24.992188 23.265625 C 28.390625 27.960938 33.933594 30.390625 39.558594 29.824219 C 38.75 30.835938 37.820312 31.722656 36.765625 32.492188 Z M 36.765625 32.492188 " fill-opacity="1" fill-rule="nonzero"/></g><path fill="#fdfeff" d="M 35.753906 10.113281 L 38.0625 10.113281 L 35.109375 13.632812 C 34.90625 13.878906 34.863281 14.199219 34.988281 14.484375 C 35.109375 14.765625 35.390625 14.96875 35.714844 14.96875 L 39.761719 14.96875 C 40.207031 14.96875 40.570312 14.605469 40.570312 14.160156 C 40.570312 13.714844 40.207031 13.351562 39.761719 13.351562 L 37.457031 13.351562 L 40.410156 9.828125 C 40.613281 9.585938 40.652344 9.261719 40.53125 8.980469 C 40.410156 8.695312 40.125 8.496094 39.800781 8.496094 L 35.753906 8.496094 C 35.308594 8.496094 34.945312 8.859375 34.945312 9.304688 C 34.945312 9.75 35.308594 10.113281 35.753906 10.113281 Z M 35.753906 10.113281 " fill-opacity="1" fill-rule="nonzero"/><path fill="#fdfeff" d="M 32.519531 19.015625 L 33.328125 19.015625 L 31.871094 20.960938 C 31.667969 21.203125 31.667969 21.527344 31.789062 21.808594 C 31.910156 22.09375 32.195312 22.253906 32.519531 22.253906 L 34.945312 22.253906 C 35.390625 22.253906 35.753906 21.890625 35.753906 21.445312 C 35.753906 21 35.390625 20.636719 34.945312 20.636719 L 34.136719 20.636719 L 35.59375 18.691406 C 35.796875 18.449219 35.796875 18.125 35.675781 17.84375 C 35.554688 17.558594 35.269531 17.398438 34.945312 17.398438 L 32.519531 17.398438 C 32.074219 17.398438 31.707031 17.761719 31.707031 18.207031 C 31.707031 18.652344 32.074219 19.015625 32.519531 19.015625 Z M 32.519531 19.015625 " fill-opacity="1" fill-rule="nonzero"/></svg>