<svg xmlns="http://www.w3.org/2000/svg" xmlns:xlink="http://www.w3.org/1999/xlink" width="64" zoomAndPan="magnify" viewBox="0 0 48 48" height="64" preserveAspectRatio="xMidYMid meet" version="1.0"><defs><clipPath id="4d8b83e218"><path d="M 7.707031 4.703125 L 27 4.703125 L 27 32 L 7.707031 32 Z M 7.707031 4.703125 " clip-rule="nonzero"/></clipPath><clipPath id="f884e1ce6a"><path d="M 29 16 L 40.035156 16 L 40.035156 33 L 29 33 Z M 29 16 " clip-rule="nonzero"/></clipPath><clipPath id="b267c3bb06"><path d="M 21 29 L 31 29 L 31 42.171875 L 21 42.171875 Z M 21 29 " clip-rule="nonzero"/></clipPath></defs><g clip-path="url(#4d8b83e218)"><path fill="#ffffff" d="M 17.113281 6.347656 C 18.90625 8.449219 25.25 16.226562 25.25 21.035156 C 25.25 25.03125 23.835938 29.792969 17.113281 29.792969 C 10.390625 29.792969 8.980469 25.03125 8.980469 21.035156 C 8.980469 16.226562 15.320312 8.449219 17.113281 6.347656 Z M 17.113281 31.046875 C 23.164062 31.046875 26.5 27.488281 26.5 21.035156 C 26.5 14.988281 17.945312 5.378906 17.578125 4.972656 C 17.339844 4.707031 16.886719 4.707031 16.648438 4.972656 C 16.28125 5.378906 7.726562 14.988281 7.726562 21.035156 C 7.726562 27.488281 11.0625 31.046875 17.113281 31.046875 " fill-opacity="1" fill-rule="nonzero"/></g><g clip-path="url(#f884e1ce6a)"><path fill="#ffffff" d="M 34.632812 17.601562 C 35.84375 19.003906 39.015625 22.960938 39.015625 25.742188 C 39.015625 29.261719 37.539062 31.046875 34.632812 31.046875 C 31.726562 31.046875 30.253906 29.261719 30.253906 25.742188 C 30.253906 22.960938 33.425781 19.003906 34.632812 17.601562 Z M 34.632812 32.296875 C 38.214844 32.296875 40.265625 29.910156 40.265625 25.742188 C 40.265625 21.832031 35.304688 16.453125 35.089844 16.226562 C 34.855469 15.972656 34.414062 15.972656 34.175781 16.226562 C 33.964844 16.453125 29.003906 21.832031 29.003906 25.742188 C 29.003906 29.910156 31.054688 32.296875 34.632812 32.296875 " fill-opacity="1" fill-rule="nonzero"/></g><g clip-path="url(#b267c3bb06)"><path fill="#ffffff" d="M 25.875 41.058594 C 23.800781 41.058594 22.746094 39.792969 22.746094 37.304688 C 22.746094 35.601562 24.703125 32.832031 25.875 31.390625 C 27.046875 32.832031 29.003906 35.597656 29.003906 37.304688 C 29.003906 39.792969 27.949219 41.058594 25.875 41.058594 Z M 25.40625 30.007812 C 25.246094 30.1875 21.492188 34.46875 21.492188 37.304688 C 21.492188 40.484375 23.089844 42.308594 25.875 42.308594 C 28.660156 42.308594 30.253906 40.484375 30.253906 37.304688 C 30.253906 34.46875 26.503906 30.1875 26.34375 30.007812 C 26.105469 29.734375 25.644531 29.734375 25.40625 30.007812 " fill-opacity="1" fill-rule="nonzero"/></g><path fill="#ffffff" d="M 15.800781 28.539062 C 15.820312 28.542969 15.84375 28.542969 15.863281 28.542969 C 16.179688 28.542969 16.453125 28.300781 16.484375 27.976562 C 16.519531 27.636719 16.269531 27.328125 15.921875 27.292969 C 14.460938 27.148438 13.335938 26.574219 12.582031 25.585938 C 10.917969 23.417969 11.46875 19.917969 11.472656 19.886719 C 11.53125 19.542969 11.296875 19.222656 10.960938 19.167969 C 10.621094 19.105469 10.292969 19.335938 10.242188 19.679688 C 10.210938 19.84375 9.589844 23.738281 11.585938 26.34375 C 12.558594 27.617188 13.976562 28.355469 15.800781 28.539062 " fill-opacity="1" fill-rule="nonzero"/><path fill="#ffffff" d="M 34.007812 29.792969 C 34.089844 29.792969 35.964844 29.78125 37.070312 28.476562 C 37.742188 27.683594 37.972656 26.617188 37.753906 25.3125 C 37.699219 24.96875 37.375 24.738281 37.035156 24.796875 C 36.691406 24.855469 36.464844 25.175781 36.523438 25.515625 C 36.675781 26.441406 36.539062 27.160156 36.117188 27.664062 C 35.398438 28.519531 34.035156 28.542969 34.007812 28.542969 C 33.660156 28.542969 33.382812 28.824219 33.382812 29.167969 C 33.382812 29.511719 33.664062 29.792969 34.007812 29.792969 " fill-opacity="1" fill-rule="nonzero"/><path fill="#ffffff" d="M 25.53125 38.621094 C 25.367188 38.539062 24.863281 38.226562 25.183594 37.585938 C 25.335938 37.273438 25.210938 36.898438 24.902344 36.742188 C 24.59375 36.589844 24.21875 36.714844 24.0625 37.023438 C 23.398438 38.351562 24.242188 39.375 24.96875 39.738281 C 25.058594 39.785156 25.152344 39.804688 25.25 39.804688 C 25.476562 39.804688 25.699219 39.679688 25.808594 39.460938 C 25.960938 39.152344 25.835938 38.773438 25.53125 38.621094 " fill-opacity="1" fill-rule="nonzero"/></svg>