<?xml version="1.0" encoding="UTF-8"?>
<svg xmlns="http://www.w3.org/2000/svg" xmlns:xlink="http://www.w3.org/1999/xlink" width="16px" height="16px" viewBox="0 0 16 16" version="1.1">
<defs>
<clipPath id="clip1">
  <path d="M 0.164062 0 L 15.835938 0 L 15.835938 15.671875 L 0.164062 15.671875 Z M 0.164062 0 "/>
</clipPath>
<clipPath id="clip2">
  <path d="M 8 0 C 3.671875 0 0.164062 3.507812 0.164062 7.835938 C 0.164062 12.164062 3.671875 15.671875 8 15.671875 C 12.328125 15.671875 15.835938 12.164062 15.835938 7.835938 C 15.835938 3.507812 12.328125 0 8 0 Z M 8 0 "/>
</clipPath>
</defs>
<g id="surface1">
<g clip-path="url(#clip1)" clip-rule="nonzero">
<g clip-path="url(#clip2)" clip-rule="nonzero">
<path style=" stroke:none;fill-rule:nonzero;fill:rgb(0%,0%,0%);fill-opacity:1;" d="M 0.164062 0 L 15.835938 0 L 15.835938 15.671875 L 0.164062 15.671875 Z M 0.164062 0 "/>
</g>
</g>
<path style=" stroke:none;fill-rule:nonzero;fill:rgb(100%,100%,100%);fill-opacity:1;" d="M 3.777344 10.304688 C 3.84375 10.304688 3.902344 10.273438 3.953125 10.222656 C 4.105469 10.097656 4.160156 9.945312 4.253906 9.777344 C 4.480469 9.394531 4.699219 8.996094 4.917969 8.597656 C 5.09375 8.277344 5.285156 7.976562 5.519531 7.699219 C 5.5625 7.664062 5.589844 7.605469 5.628906 7.539062 C 5.671875 7.480469 5.714844 7.472656 5.769531 7.480469 C 5.839844 7.496094 5.878906 7.550781 5.863281 7.621094 C 5.855469 7.691406 5.839844 7.757812 5.839844 7.816406 C 5.839844 8.019531 5.824219 8.226562 5.8125 8.429688 C 5.8125 8.652344 5.8125 8.847656 5.90625 9.050781 C 5.972656 9.148438 6.046875 9.191406 6.140625 9.191406 C 6.15625 9.191406 6.199219 9.175781 6.25 9.160156 C 6.347656 9.117188 6.441406 9.050781 6.511719 8.980469 C 6.582031 8.914062 6.660156 8.832031 6.734375 8.761719 C 6.828125 8.664062 6.9375 8.554688 7.035156 8.460938 C 7.128906 8.363281 7.238281 8.269531 7.363281 8.199219 C 7.433594 8.238281 7.488281 8.308594 7.515625 8.378906 C 7.53125 8.445312 7.574219 8.511719 7.613281 8.582031 C 7.765625 8.816406 7.957031 8.925781 8.191406 8.925781 C 8.300781 8.925781 8.410156 8.914062 8.503906 8.871094 C 8.699219 8.773438 8.863281 8.679688 9 8.570312 L 9.828125 7.867188 C 9.894531 7.816406 9.964844 7.742188 10.019531 7.675781 C 10.113281 7.582031 10.113281 7.496094 10.035156 7.414062 C 10.003906 7.371094 9.964844 7.347656 9.910156 7.347656 C 9.871094 7.347656 9.828125 7.371094 9.761719 7.414062 C 9.746094 7.457031 9.71875 7.472656 9.703125 7.480469 C 9.417969 7.742188 9.097656 8.019531 8.78125 8.277344 C 8.65625 8.378906 8.371094 8.570312 8.191406 8.570312 C 8.109375 8.570312 8.027344 8.527344 7.957031 8.445312 C 7.902344 8.378906 7.859375 8.308594 7.816406 8.210938 C 7.808594 8.167969 7.792969 8.128906 7.777344 8.085938 C 7.765625 8.042969 7.734375 8.007812 7.707031 7.964844 C 7.65625 7.839844 7.558594 7.785156 7.433594 7.785156 C 7.421875 7.785156 7.363281 7.800781 7.296875 7.816406 C 7.214844 7.851562 7.128906 7.910156 7.035156 7.976562 C 6.96875 8.042969 6.886719 8.128906 6.816406 8.199219 C 6.734375 8.269531 6.652344 8.351562 6.582031 8.417969 L 6.316406 8.664062 C 6.308594 8.664062 6.308594 8.664062 6.292969 8.679688 C 6.222656 8.679688 6.183594 8.652344 6.183594 8.597656 C 6.183594 8.554688 6.183594 8.503906 6.183594 8.445312 C 6.167969 8.386719 6.167969 8.335938 6.167969 8.277344 C 6.183594 8.167969 6.183594 8.058594 6.199219 7.949219 C 6.207031 7.839844 6.207031 7.730469 6.207031 7.605469 C 6.222656 7.441406 6.222656 7.277344 6.15625 7.128906 C 6.113281 7.003906 6.03125 6.933594 5.90625 6.933594 C 5.863281 6.933594 5.8125 6.945312 5.753906 6.972656 C 5.386719 7.238281 5.082031 7.648438 4.847656 8.019531 C 4.722656 8.210938 4.613281 8.402344 4.503906 8.597656 C 4.394531 8.804688 4.285156 8.996094 4.171875 9.191406 C 4.160156 9.199219 4.144531 9.230469 4.136719 9.257812 C 4.121094 9.285156 4.105469 9.300781 4.0625 9.300781 C 4.035156 9.300781 4.011719 9.300781 3.996094 9.285156 C 4.011719 9.257812 4.011719 9.230469 4.011719 9.199219 C 3.996094 9.175781 3.996094 9.148438 4.011719 9.105469 C 4.246094 8.007812 4.558594 6.902344 5.042969 5.898438 C 5.066406 5.832031 5.09375 5.777344 5.136719 5.707031 C 5.167969 5.652344 5.167969 5.585938 5.152344 5.519531 C 5.136719 5.476562 5.066406 5.402344 5.027344 5.402344 C 5.015625 5.402344 4.984375 5.417969 4.941406 5.433594 C 4.640625 5.585938 4.035156 7.566406 3.925781 7.925781 C 3.71875 8.621094 3.558594 9.351562 3.558594 10.082031 C 3.558594 10.191406 3.609375 10.261719 3.707031 10.289062 C 3.71875 10.304688 3.75 10.304688 3.777344 10.304688 Z M 3.777344 10.304688 "/>
<path style=" stroke:none;fill-rule:nonzero;fill:rgb(100%,100%,100%);fill-opacity:1;" d="M 9.617188 14.179688 C 9.992188 14.179688 10.253906 13.480469 10.296875 13.121094 C 10.335938 12.929688 10.363281 12.738281 10.378906 12.542969 C 10.390625 12.351562 10.40625 12.160156 10.414062 11.964844 C 10.488281 11.042969 10.335938 10.121094 9.992188 9.230469 L 9.910156 9.023438 C 9.894531 8.957031 9.921875 8.914062 9.976562 8.871094 C 10.070312 8.816406 10.195312 8.773438 10.320312 8.746094 C 10.582031 8.652344 10.800781 8.554688 11.066406 8.429688 C 11.328125 8.292969 11.585938 8.160156 11.847656 8.019531 C 12.109375 7.894531 12.367188 7.757812 12.632812 7.632812 C 12.675781 7.605469 12.726562 7.582031 12.769531 7.550781 C 12.8125 7.539062 12.867188 7.507812 12.90625 7.480469 C 12.976562 7.441406 13.003906 7.371094 12.976562 7.289062 C 12.960938 7.207031 12.90625 7.164062 12.8125 7.164062 C 12.796875 7.164062 12.796875 7.164062 12.796875 7.164062 C 12.785156 7.179688 12.785156 7.179688 12.769531 7.179688 C 12.660156 7.222656 12.550781 7.261719 12.441406 7.316406 L 10.953125 8.074219 C 10.722656 8.199219 10.472656 8.320312 10.210938 8.386719 L 10.171875 8.386719 C 10.128906 8.386719 10.101562 8.386719 10.085938 8.378906 C 10.019531 8.335938 10.03125 8.269531 10.070312 8.210938 C 10.113281 8.117188 10.171875 8.019531 10.238281 7.894531 C 10.363281 7.691406 10.515625 7.457031 10.664062 7.207031 C 11.351562 6.132812 12.785156 3.683594 12.9375 2.449219 C 12.976562 2.285156 12.960938 2.144531 12.796875 2.050781 C 12.785156 2.035156 12.753906 2.035156 12.710938 2.035156 C 12.398438 2.035156 11.914062 2.792969 11.613281 3.332031 C 11.328125 3.851562 10.914062 4.714844 10.816406 4.964844 C 9.867188 7.332031 9.097656 9.769531 8.988281 12.335938 C 8.972656 12.652344 9.015625 12.972656 9.054688 13.289062 C 9.097656 13.589844 9.289062 14.179688 9.617188 14.179688 Z M 9.648438 13.742188 C 9.617188 13.742188 9.59375 13.726562 9.566406 13.683594 C 9.457031 13.480469 9.425781 13.289062 9.382812 13.082031 C 9.316406 12.542969 9.34375 11.992188 9.414062 11.457031 C 9.46875 10.867188 9.535156 10.273438 9.703125 9.726562 C 9.8125 9.792969 9.84375 9.878906 9.851562 9.945312 C 9.960938 10.332031 10.046875 10.714844 10.0625 11.144531 C 10.101562 11.761719 10.0625 12.394531 9.960938 13.011719 C 9.921875 13.273438 9.878906 13.480469 9.726562 13.683594 C 9.71875 13.726562 9.6875 13.742188 9.648438 13.742188 Z M 10.566406 6.808594 L 10.566406 6.777344 C 10.582031 6.792969 10.597656 6.808594 10.609375 6.808594 C 10.539062 6.710938 10.566406 6.617188 10.609375 6.519531 C 11.035156 5.292969 11.488281 4.113281 12.191406 3.011719 C 12.234375 2.945312 12.289062 2.863281 12.332031 2.761719 C 12.367188 2.679688 12.441406 2.628906 12.550781 2.601562 C 12.59375 2.695312 12.59375 2.792969 12.550781 2.871094 C 12.507812 2.957031 12.484375 3.039062 12.453125 3.121094 C 11.957031 4.429688 11.335938 5.636719 10.609375 6.808594 Z M 10.566406 6.808594 "/>
</g>
</svg>
