<?xml version="1.0" standalone="no"?>
<!DOCTYPE svg PUBLIC "-//W3C//DTD SVG 20010904//EN"
 "http://www.w3.org/TR/2001/REC-SVG-20010904/DTD/svg10.dtd">
<svg version="1.0" xmlns="http://www.w3.org/2000/svg"
 width="725.000000pt" height="387.000000pt" viewBox="0 0 725.000000 387.000000"
 preserveAspectRatio="xMidYMid meet">

<g transform="translate(0.000000,387.000000) scale(0.100000,-0.100000)"
fill="#000000" stroke="none">
<path d="M3030 3529 c-9 -15 -8 -24 1 -35 28 -33 80 -3 59 35 -6 12 -19 21
-30 21 -11 0 -24 -9 -30 -21z"/>
<path d="M3483 3489 c-48 -45 -51 -49 -24 -49 21 0 31 -40 31 -127 0 -66 6
-80 42 -99 33 -17 72 -12 100 13 24 21 13 35 -17 21 -36 -16 -71 2 -79 42 -3
18 -6 59 -6 91 l0 59 45 0 c33 0 45 4 45 15 0 11 -12 15 -44 15 -42 0 -45 2
-48 29 l-3 30 -42 -40z"/>
<path d="M3720 3452 c-40 -20 -48 -55 -14 -60 16 -2 23 4 28 23 5 21 12 26 33
23 14 -2 35 -15 46 -29 30 -41 11 -64 -62 -78 -88 -17 -114 -59 -66 -106 26
-27 72 -33 107 -14 17 9 23 8 30 -5 10 -18 45 -21 68 -6 13 9 13 11 0 20 -8 5
-19 11 -23 12 -4 2 -4 37 1 78 11 89 1 125 -39 145 -37 20 -66 19 -109 -3z
m100 -157 c0 -25 -31 -65 -51 -65 -22 0 -49 21 -49 39 0 24 18 38 55 44 17 2
33 5 38 6 4 0 7 -10 7 -24z"/>
<path d="M3273 3445 c-55 -23 -69 -77 -30 -112 12 -11 45 -28 74 -37 79 -26
84 -86 7 -86 -27 0 -37 5 -46 25 -21 46 -47 20 -29 -28 9 -23 16 -27 53 -27
56 0 110 28 122 63 15 40 -16 75 -89 101 -62 22 -78 43 -55 71 19 23 67 19 75
-5 7 -22 35 -28 35 -7 -1 43 -13 57 -49 57 -20 -1 -50 -7 -68 -15z"/>
<path d="M3063 3390 c-39 -23 -42 -40 -8 -40 21 0 26 -7 39 -52 36 -129 36
-127 15 -133 -11 -4 -19 -11 -17 -17 5 -13 4 -13 71 2 58 13 80 40 33 40 -22
0 -26 9 -52 110 -16 61 -33 110 -39 110 -5 0 -25 -9 -42 -20z"/>
<path d="M2893 3340 c-114 -69 -81 -243 49 -257 51 -6 107 26 122 70 14 39 3
42 -32 7 -52 -52 -113 -37 -151 37 -17 33 -13 78 8 104 17 21 22 22 53 12 46
-13 73 -1 58 28 -14 25 -65 25 -107 -1z"/>
<path d="M2614 3205 c-12 -8 -27 -28 -34 -45 -11 -27 -14 -29 -25 -13 -11 15
-15 13 -43 -18 -31 -35 -33 -54 -3 -44 10 3 24 -2 33 -12 31 -37 79 -126 76
-141 -2 -9 -18 -21 -36 -26 -31 -8 -35 -7 -70 35 -75 88 -99 101 -153 79 -55
-23 -90 -130 -45 -138 29 -6 41 13 22 39 -14 21 -14 24 1 41 20 22 76 24 94 2
11 -14 9 -25 -19 -74 -49 -89 -41 -130 25 -130 39 0 83 37 83 70 0 17 4 19 24
14 19 -4 28 0 38 16 7 11 41 37 76 56 60 34 74 58 30 52 -16 -2 -30 11 -60 61
-45 73 -46 104 -5 135 26 19 30 19 55 5 36 -20 105 -138 91 -156 -25 -29 0
-29 49 0 58 35 65 47 27 47 -20 0 -34 14 -71 70 -24 38 -53 74 -64 80 -27 14
-72 12 -96 -5z m-113 -327 c16 -30 -14 -70 -49 -66 -35 4 -39 29 -12 73 23 38
38 36 61 -7z"/>
<path d="M3395 3083 c-307 -40 -576 -165 -798 -373 -134 -126 -267 -316 -326
-467 l-21 -53 23 0 c20 0 32 18 80 113 178 355 499 607 902 709 116 29 395 36
525 14 275 -48 520 -176 721 -376 193 -192 320 -425 369 -677 11 -56 15 -63
36 -63 30 0 30 4 -6 147 -136 526 -593 937 -1132 1017 -95 14 -295 19 -373 9z"/>
<path d="M2190 2865 c-8 -9 -13 -33 -13 -52 1 -26 -2 -32 -10 -24 -19 19 -33
12 -50 -25 -20 -41 -13 -63 12 -40 16 15 23 11 89 -45 62 -51 71 -63 62 -79
-21 -40 10 -28 54 21 48 53 53 82 9 54 -24 -16 -26 -15 -79 30 -63 55 -77 89
-45 112 14 9 21 23 19 36 -4 27 -30 33 -48 12z"/>
<path d="M1888 2624 l-76 -124 36 -30 c46 -37 67 -25 33 20 l-22 31 21 34 21
34 129 -82 c109 -69 127 -84 119 -98 -12 -23 -12 -39 1 -39 17 0 90 124 79
135 -7 7 -15 4 -25 -10 -14 -19 -15 -19 -47 -2 -17 10 -76 46 -129 80 l-97 62
21 33 c19 31 24 33 58 27 53 -9 59 10 11 35 -22 11 -44 20 -48 19 -4 0 -42
-56 -85 -125z"/>
<path d="M4244 2561 c-104 -63 -248 -334 -360 -675 -38 -116 -41 -122 -112
-198 -94 -99 -193 -174 -256 -193 -44 -13 -52 -13 -73 0 -31 21 -31 73 1 161
14 36 22 73 19 80 -3 8 -18 14 -34 14 -21 0 -52 -20 -116 -74 -48 -41 -89 -73
-89 -72 -1 0 6 33 16 71 43 161 15 256 -69 239 -74 -15 -156 -121 -281 -364
-120 -233 -117 -140 5 165 80 202 79 198 58 217 -29 26 -202 96 -304 122 -164
44 -281 58 -479 59 -229 2 -376 -18 -825 -108 -449 -90 -585 -109 -760 -102
-102 3 -148 9 -171 21 -25 13 -37 14 -62 5 -40 -14 -49 -37 -19 -48 13 -5 72
-14 131 -20 196 -20 447 7 926 100 617 119 893 135 1180 65 88 -22 236 -74
269 -95 11 -7 6 -23 -23 -82 -55 -112 -79 -215 -80 -344 -1 -124 14 -165 61
-165 38 0 65 36 151 206 116 225 199 331 234 296 24 -24 -47 -209 -141 -371
-24 -41 -18 -61 20 -61 22 0 50 19 116 78 99 87 142 122 153 122 5 0 3 -16 -2
-35 -15 -46 -1 -92 35 -119 22 -16 42 -21 90 -20 83 1 181 52 284 148 44 41
73 62 70 51 -22 -72 -89 -363 -108 -471 -18 -101 -23 -168 -23 -309 l-1 -180
30 -60 c50 -99 123 -122 165 -52 59 96 90 253 120 606 27 323 26 318 58 335
15 7 91 37 170 65 78 28 184 71 235 95 207 100 348 129 627 130 234 1 279 -5
715 -90 571 -112 725 -131 950 -120 154 7 199 16 203 39 6 30 -45 41 -103 22
-109 -35 -307 -30 -560 15 -55 9 -235 45 -400 78 -165 33 -356 68 -425 77
-260 34 -552 30 -748 -11 -85 -17 -157 -42 -417 -141 -199 -76 -280 -116 -302
-150 -8 -12 -28 -106 -44 -210 -33 -211 -85 -497 -100 -558 -6 -22 -15 -57
-20 -77 -18 -70 -29 -40 -29 80 0 180 50 538 121 862 42 191 43 193 134 310
222 284 315 454 315 573 0 48 -6 59 -37 76 -31 16 -53 14 -89 -8z m60 -118
c-9 -26 -34 -82 -56 -123 -45 -85 -208 -333 -214 -327 -8 8 106 280 153 366
56 103 112 169 125 147 5 -9 2 -34 -8 -63z"/>
<path d="M2179 1918 c-19 -106 -16 -343 6 -458 102 -538 508 -972 1030 -1099
170 -41 377 -54 525 -31 319 49 611 197 822 416 176 184 319 467 362 716 21
124 30 245 18 252 -28 17 -39 -6 -46 -101 -23 -334 -172 -645 -419 -880 -169
-160 -365 -267 -602 -329 -137 -36 -393 -45 -546 -19 -184 30 -370 105 -533
213 -94 62 -290 258 -356 356 -147 219 -230 489 -230 748 0 88 13 227 26 271
4 13 -1 17 -19 17 -23 0 -26 -6 -38 -72z"/>
</g>
</svg>
